<svg xmlns="http://www.w3.org/2000/svg" viewBox="0 0 1600 900" role="img" aria-label="InfernoDrift 3.3">
  <defs>
    <linearGradient id="bg33" x1="0" y1="0" x2="1" y2="1">
      <stop offset="0%" stop-color="#08131f"/>
      <stop offset="45%" stop-color="#12263f"/>
      <stop offset="100%" stop-color="#2d120f"/>
    </linearGradient>
    <linearGradient id="roadGlow" x1="0" y1="0" x2="1" y2="0">
      <stop offset="0%" stop-color="#56e9ff" stop-opacity="0"/>
      <stop offset="50%" stop-color="#56e9ff" stop-opacity="0.8"/>
      <stop offset="100%" stop-color="#ff8a4f" stop-opacity="0"/>
    </linearGradient>
    <filter id="softGlow"><feGaussianBlur stdDeviation="18" result="b"/><feMerge><feMergeNode in="b"/><feMergeNode in="SourceGraphic"/></feMerge></filter>
  </defs>
  <rect width="1600" height="900" rx="46" fill="url(#bg33)"/>
  <circle cx="1230" cy="180" r="210" fill="#ff7a45" opacity="0.18"/>
  <circle cx="280" cy="720" r="260" fill="#56e9ff" opacity="0.12"/>
  <path d="M120 770 C380 650, 560 640, 820 690 S1270 790, 1480 640" fill="none" stroke="#203449" stroke-width="120" stroke-linecap="round"/>
  <path d="M120 770 C380 650, 560 640, 820 690 S1270 790, 1480 640" fill="none" stroke="url(#roadGlow)" stroke-width="20" stroke-linecap="round" filter="url(#softGlow)"/>
  <g transform="translate(780 470) rotate(-14)">
    <rect x="-170" y="-54" width="330" height="104" rx="28" fill="#f57f4e"/>
    <rect x="-135" y="-84" width="150" height="56" rx="18" fill="#0a1827" opacity="0.92"/>
    <rect x="-28" y="-84" width="96" height="56" rx="16" fill="#56e9ff" opacity="0.65"/>
    <rect x="104" y="-34" width="74" height="42" rx="14" fill="#0f1822"/>
    <circle cx="-96" cy="62" r="42" fill="#081018"/>
    <circle cx="94" cy="62" r="42" fill="#081018"/>
    <circle cx="-96" cy="62" r="18" fill="#d8ecff"/>
    <circle cx="94" cy="62" r="18" fill="#d8ecff"/>
    <rect x="-182" y="-4" width="28" height="18" rx="9" fill="#56e9ff"/>
    <rect x="154" y="-4" width="28" height="18" rx="9" fill="#ffb868"/>
  </g>
  <text x="108" y="166" fill="#f7fbff" font-family="Bebas Neue, Arial, sans-serif" font-size="118" letter-spacing="7">INFERNODRIFT 3.3</text>
  <text x="112" y="246" fill="#b8c9db" font-family="Rajdhani, Arial, sans-serif" font-size="40" font-weight="600" letter-spacing="2">SURVIVAL DRIFT CAMPAIGN</text>
</svg>
