<svg xmlns="http://www.w3.org/2000/svg" viewBox="0 0 1600 900" role="img" aria-label="InfernoDriftMax 1">
  <defs>
    <linearGradient id="bgmax" x1="0" y1="0" x2="1" y2="1">
      <stop offset="0%" stop-color="#071019"/>
      <stop offset="42%" stop-color="#132a42"/>
      <stop offset="100%" stop-color="#1b1621"/>
    </linearGradient>
    <linearGradient id="arena" x1="0" y1="0" x2="0" y2="1">
      <stop offset="0%" stop-color="#23364f"/>
      <stop offset="100%" stop-color="#0d1522"/>
    </linearGradient>
    <radialGradient id="ballGlow" cx="50%" cy="50%" r="50%">
      <stop offset="0%" stop-color="#ffffff"/>
      <stop offset="100%" stop-color="#b7d7ff"/>
    </radialGradient>
  </defs>
  <rect width="1600" height="900" rx="46" fill="url(#bgmax)"/>
  <ellipse cx="800" cy="640" rx="560" ry="170" fill="url(#arena)" stroke="#7aa1c9" stroke-opacity="0.22" stroke-width="4"/>
  <path d="M260 640 C250 560, 300 500, 390 454" fill="none" stroke="#56e9ff" stroke-opacity="0.6" stroke-width="20" stroke-linecap="round"/>
  <path d="M1340 640 C1350 560, 1300 500, 1210 454" fill="none" stroke="#ff6c6c" stroke-opacity="0.65" stroke-width="20" stroke-linecap="round"/>
  <rect x="294" y="520" width="40" height="120" rx="20" fill="#56e9ff" opacity="0.85"/>
  <rect x="1266" y="520" width="40" height="120" rx="20" fill="#ff6c6c" opacity="0.88"/>
  <circle cx="800" cy="572" r="58" fill="url(#ballGlow)"/>
  <g transform="translate(610 620) rotate(-10)">
    <rect x="-124" y="-38" width="250" height="78" rx="22" fill="#57dfff"/>
    <rect x="-86" y="-66" width="96" height="40" rx="14" fill="#0a1624" opacity="0.9"/>
    <circle cx="-76" cy="48" r="30" fill="#081018"/>
    <circle cx="82" cy="48" r="30" fill="#081018"/>
  </g>
  <g transform="translate(1010 610) rotate(9)">
    <rect x="-124" y="-38" width="250" height="78" rx="22" fill="#ff7a72"/>
    <rect x="-8" y="-66" width="96" height="40" rx="14" fill="#0a1624" opacity="0.9"/>
    <circle cx="-76" cy="48" r="30" fill="#081018"/>
    <circle cx="82" cy="48" r="30" fill="#081018"/>
  </g>
  <text x="104" y="166" fill="#f7fbff" font-family="Bebas Neue, Arial, sans-serif" font-size="112" letter-spacing="7">INFERNODRIFTMAX 1</text>
  <text x="110" y="246" fill="#b8c9db" font-family="Rajdhani, Arial, sans-serif" font-size="40" font-weight="600" letter-spacing="2">3V3 WALL-DRIVE ARENA</text>
</svg>
